<?xml version="1.0" encoding="UTF-8"?>
<svg xmlns="http://www.w3.org/2000/svg" xmlns:xlink="http://www.w3.org/1999/xlink" version="1.1" viewBox="0 0 1000 1000">
  <defs>
    <style>
      .cls-1 {
        fill: url(#linear-gradient-2);
      }

      .cls-2 {
        fill: #96bfdc;
      }

      .cls-3 {
        fill: url(#linear-gradient);
      }

      .cls-4 {
        fill: #577a9f;
      }
    </style>
    <linearGradient id="linear-gradient" x1="389.4" y1="533" x2="580.1" y2="533" gradientUnits="userSpaceOnUse">
      <stop offset="0" stop-color="#f4126a"/>
      <stop offset="1" stop-color="#fc5e0b"/>
    </linearGradient>
    <linearGradient id="linear-gradient-2" x1="443.9" y1="470.8" x2="634.5" y2="470.8" xlink:href="#linear-gradient"/>
  </defs>
  <!-- Generator: Adobe Illustrator 28.7.1, SVG Export Plug-In . SVG Version: 1.2.0 Build 142)  -->
  <g>
    <g id="Layer_2">
      <g>
        <path class="cls-3" d="M560.4,625.9c-4.9,0-9.9-1.8-13.7-5.5l-117.9-114.2v51.7c0,10.9-8.8,19.7-19.7,19.7s-19.7-8.8-19.7-19.7v-98.1c0-7.9,4.7-15,12-18.1,7.3-3.1,15.7-1.5,21.4,4l151.3,146.5c7.8,7.6,8,20,.4,27.8-3.9,4-9,6-14.1,6Z"/>
        <path class="cls-1" d="M614.9,563.7c-5,0-9.9-1.9-13.7-5.5l-151.3-146.5c-7.8-7.6-8-20-.4-27.8,7.6-7.8,20-8,27.8-.4l117.9,114.2v-51.7c0-10.9,8.8-19.7,19.7-19.7s19.7,8.8,19.7,19.7v98.1c0,7.9-4.7,15-12,18.1-2.5,1-5.1,1.6-7.7,1.6Z"/>
      </g>
      <path class="cls-2" d="M729.3,576.3h52.4c-41,143-188.7,228.1-333.6,190.7-147.3-38-235.8-188.3-197.8-335.5,38-147.3,188.3-235.8,335.5-197.8,102.4,26.4,176.4,107.1,199.2,203.3h-51.7c-27.4-91.6-112.4-158.6-212.8-158.6s-222.1,99.6-222.1,222.1,99.6,222,222.1,222,177.6-61,208.7-146.2Z"/>
      <path class="cls-4" d="M871.4,429.7c-9.7-49.3-29.2-95-56.6-135l31.4-65.9-61.3-61.8-68.6,30c-39.8-26.7-85.2-45.8-134-55.1l-26.5-71.6h-84.9l-31.2,72.5c-47.1,9.7-90.9,28.4-129.5,54.3l-68.5-30.1-62.2,61.8,32.3,65.9c-27.3,40-46.9,85.7-56.6,135,0,0-73.3,28.2-73.3,28.2v84.3l73.3,28.8c9.6,48.9,28.9,94.2,55.9,134l-34.7,66.9,65.3,60.7,65.6-31c40.7,27.9,87.3,47.7,137.6,57.2l22.9,70.1h87.9l25.9-70.1c49.1-9.3,94.6-28.4,134.6-55.2l68.6,29,61.3-60.7-30.7-66.9c27.8-40.9,47.5-87.8,56.7-138.3l69.7-24.5v-85.7l-70.5-26.8ZM513.3,772c-150,0-271.6-121.6-271.6-271.6s121.6-271.6,271.6-271.6,271.6,121.6,271.6,271.6-121.6,271.6-271.6,271.6Z"/>
    </g>
  </g>
</svg>